<svg width="64" height="64" viewBox="0 0 64 64" fill="none" xmlns="http://www.w3.org/2000/svg">
<g clip-path="url(#clip0_101_30)">
<circle cx="32" cy="32" r="23.5" fill="url(#paint0_linear_101_30)" stroke="black"/>
<circle cx="24" cy="24" r="23.5" fill="url(#paint1_linear_101_30)" stroke="black"/>
<mask id="path-3-inside-1_101_30" fill="white">
<path fill-rule="evenodd" clip-rule="evenodd" d="M43.8946 29.6882C41.8656 30.9194 40.2472 32.7247 39.2442 34.8757L43.5945 36.9043C44.1963 35.6137 45.1673 34.5305 46.3847 33.7918C47.6021 33.053 49.0113 32.6919 50.4339 32.754C51.8566 32.8161 53.2289 33.2987 54.3773 34.1407C55.5257 34.9828 56.3986 36.1464 56.8857 37.4846C57.3727 38.8227 57.452 40.2752 57.1135 41.6585C56.7751 43.0417 56.034 44.2935 54.9841 45.2555C53.9342 46.2176 52.6226 46.8467 51.2152 47.0633C50.2872 47.2062 49.345 47.1654 48.4409 46.9486L50.0343 43.5316L38.9495 46.0071L44.1783 56.0897L46.3876 51.3519C48.1723 51.936 50.0761 52.0952 51.9453 51.8075C54.2911 51.4464 56.4771 50.3979 58.2269 48.7945C59.9768 47.191 61.2119 45.1047 61.776 42.7994C62.3401 40.494 62.2079 38.0731 61.3962 35.8429C60.5844 33.6126 59.1296 31.6732 57.2156 30.2698C55.3016 28.8664 53.0144 28.0621 50.6433 27.9585C48.2722 27.855 45.9236 28.4569 43.8946 29.6882Z"/>
</mask>
<path fill-rule="evenodd" clip-rule="evenodd" d="M43.8946 29.6882C41.8656 30.9194 40.2472 32.7247 39.2442 34.8757L43.5945 36.9043C44.1963 35.6137 45.1673 34.5305 46.3847 33.7918C47.6021 33.053 49.0113 32.6919 50.4339 32.754C51.8566 32.8161 53.2289 33.2987 54.3773 34.1407C55.5257 34.9828 56.3986 36.1464 56.8857 37.4846C57.3727 38.8227 57.452 40.2752 57.1135 41.6585C56.7751 43.0417 56.034 44.2935 54.9841 45.2555C53.9342 46.2176 52.6226 46.8467 51.2152 47.0633C50.2872 47.2062 49.345 47.1654 48.4409 46.9486L50.0343 43.5316L38.9495 46.0071L44.1783 56.0897L46.3876 51.3519C48.1723 51.936 50.0761 52.0952 51.9453 51.8075C54.2911 51.4464 56.4771 50.3979 58.2269 48.7945C59.9768 47.191 61.2119 45.1047 61.776 42.7994C62.3401 40.494 62.2079 38.0731 61.3962 35.8429C60.5844 33.6126 59.1296 31.6732 57.2156 30.2698C55.3016 28.8664 53.0144 28.0621 50.6433 27.9585C48.2722 27.855 45.9236 28.4569 43.8946 29.6882Z" fill="#D9D9D9"/>
<path d="M39.2442 34.8757L38.3379 34.4531L37.9153 35.3594L38.8216 35.782L39.2442 34.8757ZM43.8946 29.6882L44.4134 30.5431L43.8946 29.6882ZM43.5945 36.9043L43.1718 37.8106L44.0781 38.2332L44.5008 37.3269L43.5945 36.9043ZM50.4339 32.754L50.4776 31.7549L50.4776 31.7549L50.4339 32.754ZM54.3773 34.1407L54.9686 33.3343L54.3773 34.1407ZM56.8857 37.4846L57.8254 37.1426L57.8254 37.1426L56.8857 37.4846ZM51.2152 47.0633L51.063 46.075L51.063 46.075L51.2152 47.0633ZM48.4409 46.9486L47.5346 46.526L47.0172 47.6356L48.2077 47.9211L48.4409 46.9486ZM50.0343 43.5316L50.9406 43.9542L51.7992 42.1128L49.8163 42.5556L50.0343 43.5316ZM38.9495 46.0071L38.7316 45.0311L37.4638 45.3142L38.0618 46.4674L38.9495 46.0071ZM44.1783 56.0897L43.2906 56.5501L44.2259 58.3538L45.0846 56.5123L44.1783 56.0897ZM46.3876 51.3519L46.6986 50.4015L45.856 50.1258L45.4813 50.9293L46.3876 51.3519ZM51.9453 51.8075L52.0975 52.7958L51.9453 51.8075ZM58.2269 48.7945L57.5514 48.0572L58.2269 48.7945ZM61.776 42.7994L60.8046 42.5617L60.8046 42.5617L61.776 42.7994ZM61.3962 35.8429L60.4565 36.1849L61.3962 35.8429ZM57.2156 30.2698L56.6243 31.0762L57.2156 30.2698ZM50.6433 27.9585L50.6869 26.9595L50.6869 26.9595L50.6433 27.9585ZM40.1505 35.2983C41.0699 33.3266 42.5534 31.6717 44.4134 30.5431L43.3758 28.8333C41.1777 30.1671 39.4245 32.1228 38.3379 34.4531L40.1505 35.2983ZM44.0171 35.998L39.6668 33.9694L38.8216 35.782L43.1718 37.8106L44.0171 35.998ZM45.8659 32.9368C44.4794 33.7782 43.3736 35.0118 42.6881 36.4816L44.5008 37.3269C45.019 36.2155 45.8551 35.2828 46.9035 34.6467L45.8659 32.9368ZM50.4776 31.7549C48.8573 31.6842 47.2524 32.0955 45.8659 32.9368L46.9035 34.6467C47.9518 34.0105 49.1652 33.6995 50.3903 33.753L50.4776 31.7549ZM54.9686 33.3343C53.6607 32.3753 52.0978 31.8257 50.4776 31.7549L50.3903 33.753C51.6154 33.8065 52.7971 34.2221 53.786 34.9472L54.9686 33.3343ZM57.8254 37.1426C57.2707 35.6186 56.2765 34.2933 54.9686 33.3343L53.786 34.9472C54.7749 35.6723 55.5266 36.6743 55.946 37.8266L57.8254 37.1426ZM58.0849 41.8961C58.4704 40.3208 58.38 38.6666 57.8254 37.1426L55.946 37.8266C56.3654 38.9789 56.4337 40.2297 56.1422 41.4208L58.0849 41.8961ZM55.6597 45.9928C56.8554 44.8971 57.6994 43.4715 58.0849 41.8961L56.1422 41.4208C55.8507 42.6119 55.2126 43.6898 54.3085 44.5182L55.6597 45.9928ZM51.3673 48.0517C52.9702 47.805 54.464 47.0885 55.6597 45.9928L54.3085 44.5182C53.4044 45.3467 52.275 45.8884 51.063 46.075L51.3673 48.0517ZM48.2077 47.9211C49.2374 48.168 50.3104 48.2144 51.3673 48.0517L51.063 46.075C50.2639 46.198 49.4526 46.1629 48.6741 45.9762L48.2077 47.9211ZM49.128 43.1089L47.5346 46.526L49.3472 47.3712L50.9406 43.9542L49.128 43.1089ZM39.1675 46.983L50.2522 44.5075L49.8163 42.5556L38.7316 45.0311L39.1675 46.983ZM45.066 55.6294L39.8372 45.5467L38.0618 46.4674L43.2906 56.5501L45.066 55.6294ZM45.4813 50.9293L43.272 55.6671L45.0846 56.5123L47.2939 51.7746L45.4813 50.9293ZM51.7932 50.8191C50.0797 51.0828 48.3346 50.9369 46.6986 50.4015L46.0765 52.3023C48.01 52.9351 50.0724 53.1075 52.0975 52.7958L51.7932 50.8191ZM57.5514 48.0572C55.9473 49.527 53.9435 50.4881 51.7932 50.8191L52.0975 52.7958C54.6387 52.4047 57.0069 51.2688 58.9025 49.5317L57.5514 48.0572ZM60.8046 42.5617C60.2875 44.6749 59.1554 46.5874 57.5514 48.0572L58.9025 49.5317C60.7982 47.7947 62.1362 45.5345 62.7473 43.037L60.8046 42.5617ZM60.4565 36.1849C61.2006 38.2293 61.3217 40.4484 60.8046 42.5617L62.7473 43.037C63.3584 40.5396 63.2153 37.917 62.3359 35.5009L60.4565 36.1849ZM56.6243 31.0762C58.3788 32.3627 59.7124 34.1405 60.4565 36.1849L62.3359 35.5009C61.4565 33.0848 59.8804 30.9837 57.8069 29.4633L56.6243 31.0762ZM50.5997 28.9576C52.7732 29.0525 54.8698 29.7898 56.6243 31.0762L57.8069 29.4633C55.7334 27.943 53.2556 27.0716 50.6869 26.9595L50.5997 28.9576ZM44.4134 30.5431C46.2733 29.4144 48.4262 28.8627 50.5997 28.9576L50.6869 26.9595C48.1182 26.8473 45.5739 27.4994 43.3758 28.8333L44.4134 30.5431Z" fill="black" mask="url(#path-3-inside-1_101_30)"/>
</g>
<defs>
<linearGradient id="paint0_linear_101_30" x1="56" y1="8" x2="7" y2="58" gradientUnits="userSpaceOnUse">
<stop stop-color="#A3B0D2"/>
<stop offset="1" stop-color="#3A4050"/>
</linearGradient>
<linearGradient id="paint1_linear_101_30" x1="48" y1="2.98024e-08" x2="-1" y2="50" gradientUnits="userSpaceOnUse">
<stop stop-color="#315CCB"/>
<stop offset="1" stop-color="#102251"/>
</linearGradient>
<clipPath id="clip0_101_30">
<rect width="64" height="64" fill="white"/>
</clipPath>
</defs>
</svg>
