<svg width="64" height="64" viewBox="0 0 64 64" fill="none" xmlns="http://www.w3.org/2000/svg">
<g clip-path="url(#clip0_101_30)">
<circle cx="28" cy="28" r="23.5" fill="url(#paint0_linear_101_30)" stroke="black"/>
<mask id="path-2-inside-1_101_30" fill="white">
<path fill-rule="evenodd" clip-rule="evenodd" d="M41.8946 33.6882C39.8656 34.9194 38.2472 36.7247 37.2442 38.8757L41.5945 40.9043C42.1963 39.6137 43.1673 38.5305 44.3847 37.7918C45.6021 37.053 47.0113 36.6919 48.4339 36.754C49.8566 36.8161 51.2289 37.2987 52.3773 38.1407C53.5257 38.9828 54.3986 40.1464 54.8857 41.4846C55.3727 42.8227 55.452 44.2752 55.1135 45.6585C54.7751 47.0417 54.034 48.2935 52.9841 49.2555C51.9342 50.2176 50.6226 50.8467 49.2152 51.0633C48.2872 51.2062 47.345 51.1654 46.4409 50.9486L48.0343 47.5316L36.9495 50.0071L42.1783 60.0897L44.3876 55.3519C46.1723 55.936 48.0761 56.0952 49.9453 55.8075C52.2911 55.4464 54.4771 54.3979 56.2269 52.7945C57.9768 51.191 59.2119 49.1047 59.776 46.7994C60.3401 44.494 60.2079 42.0731 59.3962 39.8429C58.5844 37.6126 57.1296 35.6732 55.2156 34.2698C53.3016 32.8664 51.0144 32.0621 48.6433 31.9585C46.2722 31.855 43.9236 32.4569 41.8946 33.6882Z"/>
</mask>
<path fill-rule="evenodd" clip-rule="evenodd" d="M41.8946 33.6882C39.8656 34.9194 38.2472 36.7247 37.2442 38.8757L41.5945 40.9043C42.1963 39.6137 43.1673 38.5305 44.3847 37.7918C45.6021 37.053 47.0113 36.6919 48.4339 36.754C49.8566 36.8161 51.2289 37.2987 52.3773 38.1407C53.5257 38.9828 54.3986 40.1464 54.8857 41.4846C55.3727 42.8227 55.452 44.2752 55.1135 45.6585C54.7751 47.0417 54.034 48.2935 52.9841 49.2555C51.9342 50.2176 50.6226 50.8467 49.2152 51.0633C48.2872 51.2062 47.345 51.1654 46.4409 50.9486L48.0343 47.5316L36.9495 50.0071L42.1783 60.0897L44.3876 55.3519C46.1723 55.936 48.0761 56.0952 49.9453 55.8075C52.2911 55.4464 54.4771 54.3979 56.2269 52.7945C57.9768 51.191 59.2119 49.1047 59.776 46.7994C60.3401 44.494 60.2079 42.0731 59.3962 39.8429C58.5844 37.6126 57.1296 35.6732 55.2156 34.2698C53.3016 32.8664 51.0144 32.0621 48.6433 31.9585C46.2722 31.855 43.9236 32.4569 41.8946 33.6882Z" fill="#D9D9D9"/>
<path d="M37.2442 38.8757L36.3379 38.4531L35.9153 39.3594L36.8216 39.782L37.2442 38.8757ZM41.8946 33.6882L42.4134 34.5431L41.8946 33.6882ZM41.5945 40.9043L41.1718 41.8106L42.0781 42.2332L42.5008 41.3269L41.5945 40.9043ZM48.4339 36.754L48.4776 35.7549L48.4776 35.7549L48.4339 36.754ZM52.3773 38.1407L52.9686 37.3343L52.9686 37.3343L52.3773 38.1407ZM54.8857 41.4846L55.8254 41.1426L55.8254 41.1426L54.8857 41.4846ZM49.2152 51.0633L49.063 50.075L49.063 50.075L49.2152 51.0633ZM46.4409 50.9486L45.5346 50.526L45.0172 51.6356L46.2077 51.9211L46.4409 50.9486ZM48.0343 47.5316L48.9406 47.9542L49.7992 46.1128L47.8163 46.5556L48.0343 47.5316ZM36.9495 50.0071L36.7316 49.0311L35.4638 49.3142L36.0618 50.4674L36.9495 50.0071ZM42.1783 60.0897L41.2906 60.5501L42.2259 62.3538L43.0846 60.5123L42.1783 60.0897ZM44.3876 55.3519L44.6986 54.4015L43.856 54.1258L43.4813 54.9293L44.3876 55.3519ZM49.9453 55.8075L50.0975 56.7958L50.0975 56.7958L49.9453 55.8075ZM56.2269 52.7945L55.5514 52.0572L55.5514 52.0572L56.2269 52.7945ZM59.776 46.7994L58.8046 46.5617L58.8046 46.5617L59.776 46.7994ZM59.3962 39.8429L58.4565 40.1849L58.4565 40.1849L59.3962 39.8429ZM55.2156 34.2698L54.6243 35.0762L54.6243 35.0762L55.2156 34.2698ZM48.6433 31.9585L48.6869 30.9595L48.6869 30.9595L48.6433 31.9585ZM38.1505 39.2983C39.0699 37.3266 40.5534 35.6717 42.4134 34.5431L41.3758 32.8333C39.1777 34.1671 37.4245 36.1228 36.3379 38.4531L38.1505 39.2983ZM42.0171 39.998L37.6668 37.9694L36.8216 39.782L41.1718 41.8106L42.0171 39.998ZM43.8659 36.9368C42.4794 37.7782 41.3736 39.0118 40.6881 40.4816L42.5008 41.3269C43.019 40.2155 43.8551 39.2828 44.9035 38.6467L43.8659 36.9368ZM48.4776 35.7549C46.8573 35.6842 45.2524 36.0955 43.8659 36.9368L44.9035 38.6467C45.9518 38.0105 47.1652 37.6995 48.3903 37.753L48.4776 35.7549ZM52.9686 37.3343C51.6607 36.3753 50.0978 35.8257 48.4776 35.7549L48.3903 37.753C49.6154 37.8065 50.7971 38.2221 51.786 38.9472L52.9686 37.3343ZM55.8254 41.1426C55.2707 39.6186 54.2765 38.2933 52.9686 37.3343L51.786 38.9472C52.7749 39.6723 53.5266 40.6743 53.946 41.8266L55.8254 41.1426ZM56.0849 45.8961C56.4704 44.3208 56.38 42.6666 55.8254 41.1426L53.946 41.8266C54.3654 42.9789 54.4337 44.2297 54.1422 45.4208L56.0849 45.8961ZM53.6597 49.9928C54.8554 48.8971 55.6994 47.4715 56.0849 45.8961L54.1422 45.4208C53.8507 46.6119 53.2126 47.6898 52.3085 48.5182L53.6597 49.9928ZM49.3673 52.0517C50.9702 51.805 52.464 51.0885 53.6597 49.9928L52.3085 48.5182C51.4044 49.3467 50.275 49.8884 49.063 50.075L49.3673 52.0517ZM46.2077 51.9211C47.2374 52.168 48.3104 52.2144 49.3673 52.0517L49.063 50.075C48.2639 50.198 47.4526 50.1629 46.6741 49.9762L46.2077 51.9211ZM47.128 47.1089L45.5346 50.526L47.3472 51.3712L48.9406 47.9542L47.128 47.1089ZM37.1675 50.983L48.2522 48.5075L47.8163 46.5556L36.7316 49.0311L37.1675 50.983ZM43.066 59.6294L37.8372 49.5467L36.0618 50.4674L41.2906 60.5501L43.066 59.6294ZM43.4813 54.9293L41.272 59.6671L43.0846 60.5123L45.2939 55.7746L43.4813 54.9293ZM49.7932 54.8191C48.0797 55.0828 46.3346 54.9369 44.6986 54.4015L44.0765 56.3023C46.01 56.9351 48.0724 57.1075 50.0975 56.7958L49.7932 54.8191ZM55.5514 52.0572C53.9473 53.527 51.9435 54.4881 49.7932 54.8191L50.0975 56.7958C52.6387 56.4047 55.0069 55.2688 56.9025 53.5317L55.5514 52.0572ZM58.8046 46.5617C58.2875 48.6749 57.1554 50.5874 55.5514 52.0572L56.9025 53.5317C58.7982 51.7947 60.1362 49.5345 60.7473 47.037L58.8046 46.5617ZM58.4565 40.1849C59.2006 42.2293 59.3217 44.4484 58.8046 46.5617L60.7473 47.037C61.3584 44.5396 61.2153 41.917 60.3359 39.5009L58.4565 40.1849ZM54.6243 35.0762C56.3788 36.3627 57.7124 38.1405 58.4565 40.1849L60.3359 39.5009C59.4565 37.0848 57.8804 34.9837 55.8069 33.4633L54.6243 35.0762ZM48.5997 32.9576C50.7732 33.0525 52.8698 33.7898 54.6243 35.0762L55.8069 33.4633C53.7334 31.943 51.2556 31.0716 48.6869 30.9595L48.5997 32.9576ZM42.4134 34.5431C44.2733 33.4144 46.4262 32.8627 48.5997 32.9576L48.6869 30.9595C46.1182 30.8473 43.5739 31.4994 41.3758 32.8333L42.4134 34.5431Z" fill="black" mask="url(#path-2-inside-1_101_30)"/>
</g>
<defs>
<linearGradient id="paint0_linear_101_30" x1="52" y1="4" x2="3" y2="54" gradientUnits="userSpaceOnUse">
<stop stop-color="#315CCB"/>
<stop offset="1" stop-color="#102251"/>
</linearGradient>
<clipPath id="clip0_101_30">
<rect width="64" height="64" fill="white"/>
</clipPath>
</defs>
</svg>
