<svg width="64" height="64" viewBox="0 0 64 64" fill="none" xmlns="http://www.w3.org/2000/svg">
<g clip-path="url(#clip0_104_2)">
<path d="M0.5 26.6667V10.9916L23.5 0.769381V53.0084L0.5 63.2306V26.6667Z" fill="url(#paint0_linear_104_2)" stroke="black"/>
<path d="M31.5 34C31.5 36.4394 31.1146 38.6252 30.5089 40.1827C30.2054 40.9631 29.8564 41.5605 29.4943 41.9543C29.1326 42.3477 28.7961 42.5 28.5 42.5C28.2039 42.5 27.8674 42.3477 27.5057 41.9543C27.1436 41.5605 26.7946 40.9631 26.4911 40.1827C25.8854 38.6252 25.5 36.4394 25.5 34C25.5 31.5606 25.8854 29.3748 26.4911 27.8173C26.7946 27.0369 27.1436 26.4395 27.5057 26.0457C27.8674 25.6523 28.2039 25.5 28.5 25.5C28.7961 25.5 29.1326 25.6523 29.4943 26.0457C29.8564 26.4395 30.2054 27.0369 30.5089 27.8173C31.1146 29.3748 31.5 31.5606 31.5 34Z" fill="url(#paint1_radial_104_2)" stroke="black"/>
<line x1="55.8261" y1="31.1796" x2="23.826" y2="0.179558" stroke="#A1016D" stroke-width="0.5"/>
<line x1="55.8244" y1="32.4682" x2="-0.175561" y2="11.4682" stroke="#A1016D"/>
<line x1="56.1325" y1="32.212" x2="24.1325" y2="52.212" stroke="#A1016D" stroke-width="0.5"/>
<ellipse cx="12.5" cy="33.5" rx="4.5" ry="13.5" fill="black"/>
<line x1="55.2455" y1="32.4356" x2="0.245509" y2="63.4356" stroke="#A1016D"/>
<circle cx="56" cy="32" r="1.5" fill="url(#paint2_radial_104_2)" stroke="black"/>
</g>
<defs>
<linearGradient id="paint0_linear_104_2" x1="24" y1="3.97364e-07" x2="5.88396" y2="65.2178" gradientUnits="userSpaceOnUse">
<stop stop-color="#B9B9B9"/>
<stop offset="1" stop-color="#666666"/>
</linearGradient>
<radialGradient id="paint1_radial_104_2" cx="0" cy="0" r="1" gradientUnits="userSpaceOnUse" gradientTransform="translate(28.5 34) rotate(90) scale(7.71429 3)">
<stop stop-color="#D9D9D9"/>
<stop offset="1" stop-color="#808080"/>
</radialGradient>
<radialGradient id="paint2_radial_104_2" cx="0" cy="0" r="1" gradientUnits="userSpaceOnUse" gradientTransform="translate(56 32) rotate(90) scale(2)">
<stop stop-color="#1EE3E3"/>
<stop offset="1" stop-color="#004747"/>
</radialGradient>
<clipPath id="clip0_104_2">
<rect width="64" height="64" fill="white"/>
</clipPath>
</defs>
</svg>
